Coordinates
version=1
nRows=32
nColumns=12
inDegrees=yes

Units are S.I. units (second, meters, Newtons, ...)
Angles are in degrees

endheader
time	SC_y	SC_z	SC_x	AC_y	AC_z	AC_x	GH_y	GH_z	GH_yy	EL_x	PS_y
       0.0              -47.71           4.27          73.93          34.13         -3.312         -8.651          107.1          -9.73         -161.8          69.02          151.6
   0.01512              -47.71          4.269          73.93          34.13         -3.313         -8.652          107.1         -9.719         -161.8          69.02          151.6
   0.03024              -47.71          4.268          73.93          34.14         -3.315         -8.654          107.1         -9.707         -161.7          69.03          151.6
   0.04535              -47.71          4.267          73.93          34.14         -3.316         -8.656          107.0         -9.695         -161.7          69.03          151.6
   0.06047              -47.71          4.266          73.94          34.15         -3.318         -8.658          107.0         -9.681         -161.7          69.04          151.5
   0.07559              -47.71          4.264          73.94          34.15          -3.32          -8.66          107.0         -9.667         -161.7          69.04          151.5
   0.09071              -47.71          4.263          73.94          34.16         -3.322         -8.662          106.9         -9.652         -161.7          69.04          151.5
    0.1058              -47.71          4.261          73.94          34.17         -3.324         -8.664          106.9         -9.636         -161.7          69.05          151.5
    0.1209              -47.71           4.26          73.94          34.17         -3.326         -8.666          106.8         -9.619         -161.6          69.05          151.5
    0.1361              -47.71          4.258          73.94          34.18         -3.328         -8.669          106.8         -9.601         -161.6          69.06          151.5
    0.1512              -47.71          4.256          73.95          34.19         -3.331         -8.672          106.7         -9.581         -161.6          69.07          151.5
    0.1663              -47.71          4.254          73.95           34.2         -3.334         -8.675          106.6          -9.56         -161.6          69.07          151.5
    0.1814              -47.71          4.252          73.95           34.2         -3.337         -8.678          106.6         -9.537         -161.6          69.08          151.5
    0.1965              -47.71          4.249          73.95          34.21          -3.34         -8.681          106.5         -9.512         -161.5          69.09          151.5
    0.2117              -47.71          4.247          73.96          34.22         -3.343         -8.685          106.4         -9.485         -161.5           69.1          151.4
    0.2268              -47.71          4.244          73.96          34.23         -3.347         -8.689          106.3         -9.456         -161.5           69.1          151.4
    0.2419              -47.71          4.241          73.96          34.25         -3.351         -8.694          106.2         -9.424         -161.4          69.11          151.4
     0.257              -47.71          4.238          73.97          34.26         -3.356         -8.699          106.1          -9.39         -161.4          69.12          151.4
    0.2721              -47.71          4.234          73.97          34.27          -3.36         -8.704          106.0         -9.352         -161.3          69.14          151.4
    0.2872              -47.71           4.23          73.97          34.29         -3.366          -8.71          105.9         -9.311         -161.3          69.15          151.4
    0.3024              -47.71          4.226          73.98          34.31         -3.372         -8.716          105.7         -9.266         -161.2          69.16          151.3
    0.3175              -47.71          4.221          73.98          34.33         -3.378         -8.723          105.6         -9.216         -161.2          69.18          151.3
    0.3326               -47.7          4.215          73.99          34.35         -3.385         -8.731          105.4         -9.161         -161.1          69.19          151.3
    0.3477               -47.7           4.21           74.0          34.37         -3.393         -8.739          105.2           -9.1         -161.0          69.21          151.3
    0.3628               -47.7          4.203           74.0           34.4         -3.402         -8.749          105.0         -9.032         -161.0          69.23          151.2
     0.378               -47.7          4.196          74.01          34.42         -3.411         -8.759          104.8         -8.957         -160.9          69.26          151.2
    0.3931               -47.7          4.188          74.02          34.46         -3.422         -8.771          104.6         -8.872         -160.8          69.28          151.1
    0.4082               -47.7          4.178          74.03          34.49         -3.435         -8.785          104.3         -8.777         -160.7          69.31          151.1
    0.4233               -47.7          4.168          74.04          34.53         -3.449           -8.8          103.9         -8.669         -160.5          69.34          151.0
    0.4384               -47.7          4.156          74.05          34.58         -3.464         -8.817          103.6         -8.547         -160.4          69.38          151.0
    0.4535               -47.7          4.143          74.07          34.63         -3.482         -8.837          103.2         -8.407         -160.2          69.42          150.9
    0.4687               -47.7          4.127          74.08           34.7         -3.503         -8.859          102.7         -8.247         -160.1          69.47          150.8
